<svg width="971" height="155" viewBox="0 0 971 155" fill="none" xmlns="http://www.w3.org/2000/svg">
<path d="M137.882 9.57679C137.108 10.5945 136.709 11.6002 136.685 12.5939C136.551 18.1964 136.507 24.1253 136.552 30.3805C136.554 30.5239 136.523 30.6654 136.462 30.7947C136.402 30.9241 136.313 31.0379 136.203 31.1278C135.791 31.4688 135.28 31.8151 134.673 32.1668C129.698 35.0387 124.887 37.6401 120.242 39.9712C119.957 40.1129 119.632 40.147 119.326 40.0671C117.7 39.6555 116.069 39.152 114.406 38.1969C111.675 36.6304 108.179 34.711 103.919 32.4385C103.009 31.9537 102.096 31.8671 101.18 32.1788C100.99 31.2836 100.888 30.3885 100.875 29.4934C100.789 23.8829 100.777 18.5028 100.839 13.3531C100.868 11.0327 101.753 9.3943 103.494 8.4379C108.485 5.69924 113.116 3.10843 117.386 0.665477C118.409 0.082045 119.441 -0.11776 120.483 0.0660606C121.214 0.1966 122.589 0.815994 124.608 1.92425C129.146 4.42048 133.571 6.97133 137.882 9.57679ZM106.542 28.0508C106.443 28.8314 106.788 29.4454 107.578 29.893C111.032 31.8511 114.44 33.7373 117.8 35.5515C119.001 36.2029 119.607 36.6984 120.712 36.059C123.103 34.6817 126.813 32.6437 131.841 29.9449C132.551 29.564 132.896 28.898 132.877 27.9469C132.848 26.2019 132.828 22.5921 132.817 17.1174C132.817 16.939 132.772 16.2396 132.681 15.0195C132.622 14.2576 132.648 13.5582 132.761 12.9215C132.643 11.5522 131.845 10.4519 130.367 9.62075C124.693 6.43186 121.431 4.68556 120.579 4.38186C119.468 3.98491 118.378 4.08481 117.31 4.68156C115.026 5.95765 111.601 7.81584 107.036 10.2561C105.213 11.2312 104.273 11.9984 104.221 14.0365C104.06 20.4982 103.944 24.8379 104.393 28.3505C104.397 28.378 104.406 28.4044 104.42 28.4282C104.434 28.4519 104.453 28.4724 104.476 28.4882C104.499 28.5041 104.525 28.515 104.552 28.5202C104.579 28.5254 104.607 28.5247 104.634 28.5183L106.542 28.0508Z" fill="#D25508"/>
<path d="M132.761 12.9215C128.798 10.7849 124.917 8.64304 121.118 6.4958C120.499 6.14414 119.86 5.72455 119.202 6.0882C118.096 6.7036 114.579 8.66568 108.651 11.9745C106.932 12.9375 106.578 13.7088 106.562 15.8107C106.533 19.8974 106.526 23.9774 106.542 28.0508L104.634 28.5183C104.607 28.5247 104.579 28.5254 104.552 28.5202C104.525 28.515 104.499 28.5041 104.476 28.4882C104.453 28.4724 104.434 28.4519 104.42 28.4282C104.406 28.4044 104.397 28.378 104.393 28.3505C103.944 24.8379 104.06 20.4982 104.221 14.0365C104.273 11.9984 105.213 11.2312 107.036 10.2561C111.601 7.81584 115.026 5.95765 117.31 4.68156C118.378 4.08481 119.468 3.98491 120.579 4.38186C121.431 4.68556 124.693 6.43186 130.367 9.62075C131.845 10.4519 132.643 11.5522 132.761 12.9215Z" fill="#D25508"/>
<path d="M101.18 32.1788C102.096 31.8671 103.009 31.9537 103.919 32.4385C108.179 34.711 111.675 36.6304 114.406 38.1969C116.069 39.152 117.7 39.6555 119.326 40.0671C119.632 40.147 119.957 40.1129 120.242 39.9712C124.887 37.6401 129.698 35.0387 134.673 32.1668C135.28 31.8151 135.791 31.4688 136.203 31.1278C136.313 31.0379 136.402 30.9241 136.462 30.7947C136.523 30.6654 136.554 30.5239 136.552 30.3805C136.507 24.1253 136.551 18.1964 136.685 12.5939C136.709 11.6002 137.108 10.5945 137.882 9.57679C138.345 10.6184 138.578 11.5775 138.581 12.454C138.605 18.8158 138.601 24.8099 138.569 30.4364C138.561 31.8564 137.927 32.9247 136.669 33.6413C133.276 35.5781 128.248 38.3394 121.583 41.9253C119.435 43.0801 118.435 42.3928 116.234 41.2499C111.575 38.8309 106.94 36.2881 102.329 33.6213C101.7 33.259 101.317 32.7782 101.18 32.1788Z" fill="#D25508"/>
<path d="M92.1958 20.8818L91.4207 24.714C91.3922 24.8511 91.331 24.9793 91.2422 25.0878C91.1534 25.1963 91.0397 25.2819 90.9106 25.3374C88.9399 26.1846 87.0536 27.0131 85.2516 27.823C83.7173 28.5103 82.5405 29.3615 81.2633 30.0968C78.3194 31.7871 75.6365 34.6404 73.6524 37.3058C72.4153 38.9682 71.4795 40.123 71.4032 41.7494C71.3175 43.5024 71.3256 46.955 71.4273 52.1073C71.588 59.9837 71.4434 67.5763 71.4715 74.6374C71.5036 82.8933 70.8209 91.1733 71.2667 99.4412C71.3229 100.456 72.0258 101.267 73.3753 101.875C77.0649 98.3396 80.9394 95.1534 84.9986 92.3162C86.8702 91.0081 88.6949 89.9438 90.4728 89.1233C94.8787 87.0933 98.9915 85.315 103.976 84.276C108.105 83.4128 112.398 82.7109 116.856 82.1701C117.029 82.1488 117.188 82.068 117.307 81.9417C117.426 81.8153 117.497 81.6515 117.507 81.4787C117.689 78.1726 117.785 74.8119 117.796 71.3966C117.82 65.0561 117.817 58.0988 117.788 50.5249C117.787 50.3531 117.823 50.1831 117.895 50.0265C117.966 49.8699 118.071 49.7304 118.202 49.6178C118.951 48.9811 120.008 48.4602 121.371 48.0553L121.274 84.9434C121.274 85.0544 121.232 85.1613 121.156 85.2417C121.079 85.3221 120.975 85.3698 120.864 85.3749C114.679 85.676 108.386 86.7083 101.984 88.4719C93.0955 90.9215 84.8781 95.3053 78.7411 102.011C78.6989 102.056 78.672 102.114 78.664 102.175C78.656 102.236 78.6673 102.299 78.6964 102.354C78.7254 102.408 78.7708 102.453 78.8263 102.481C78.8817 102.509 78.9446 102.519 79.0062 102.51L82.5446 102.007C88.2906 100.278 94.3312 98.8511 100.666 97.7269C103.593 97.2074 106.317 96.8464 108.84 96.644C116.455 96.0365 124.096 95.9087 131.765 96.2603C131.857 96.2652 131.949 96.2513 132.036 96.2193C132.122 96.1874 132.201 96.1381 132.268 96.0745C132.335 96.011 132.388 95.9344 132.425 95.8495C132.461 95.7647 132.48 95.6733 132.48 95.581C132.48 73.1841 132.476 56.9293 132.468 46.8165C132.468 44.303 133.207 42.3289 135.958 41.8773C136.36 44.9663 135.898 48.343 135.91 50.7127C135.961 60.3114 135.97 67.9719 135.938 73.6943C135.868 86.1622 135.837 94.1477 135.845 97.651C135.845 98.4049 135.835 99.0096 135.813 99.4652C135.808 99.5878 135.755 99.7034 135.666 99.7871C135.576 99.8709 135.458 99.916 135.335 99.9128C130.473 99.7876 126.157 99.725 122.387 99.725C119.519 99.725 116.559 99.3933 113.9 99.6131C108.506 100.057 103.289 100.468 97.7384 101.699C89.7418 103.465 81.673 106.107 74.2508 108.748C72.1543 109.495 70.9253 109.595 68.8729 109.06C66.8058 108.522 64.625 107.864 62.3303 107.086C56.7516 105.192 49.723 103.405 45.4135 102.43C40.3127 101.277 36.5387 100.608 34.0914 100.424C28.7497 100.025 25.1751 99.661 20.8133 99.689C19.7959 99.697 17.6565 99.6544 14.3952 99.5611C12.2826 99.4998 8.56484 99.6797 3.24185 100.101C3.29004 93.6162 3.31414 87.1266 3.31414 80.6316C3.31815 65.798 3.6234 52.495 3.53906 39.2319C3.50157 32.926 3.52433 28.9965 3.60733 27.4434C3.72381 25.2815 5.37854 25.0337 7.15778 25.4054C8.60902 25.7064 11.4405 26.3564 15.6524 27.3555C16.1638 27.478 16.5922 27.5113 16.9376 27.4554C17.0021 27.4454 17.0632 27.4202 17.1156 27.382C17.1681 27.3437 17.2103 27.2935 17.2388 27.2356C17.3861 26.9292 17.461 26.499 17.4637 25.9448C17.4691 24.5728 17.4744 21.3054 17.4798 16.1424C17.4798 14.4321 17.3794 13.1213 19.1787 12.6658C20.2993 12.3781 21.6769 12.6938 22.8978 12.9255C30.3066 14.3108 36.0969 15.7241 40.2685 17.1654C42.1053 17.7994 45.3653 19.0436 50.0483 20.8978C54.078 22.4935 57.2282 23.9694 59.4988 25.3254C62.8618 27.3315 66.0575 30.0608 69.0858 33.5135C69.4499 33.9264 69.8235 34.2381 70.2063 34.4486C70.4429 34.5775 70.7169 34.6217 70.9823 34.5737C71.2477 34.5257 71.4885 34.3884 71.6643 34.1848C75.1264 30.1967 79.1494 26.9745 83.7334 24.5182C86.4136 23.0796 89.2344 21.8675 92.1958 20.8818ZM23.4762 81.3948C23.7734 81.6692 24.0492 81.8237 24.3035 81.8584C27.447 82.2873 31.6093 83.0146 36.7904 84.0402C39.567 84.5917 42.6167 85.5508 45.9396 86.9174C49.7739 88.4946 52.671 89.8146 54.631 90.8776C59.1105 93.3072 63.2969 96.3203 67.1901 99.9168C67.2159 99.9416 67.2484 99.9585 67.2837 99.9653C67.319 99.972 67.3555 99.9684 67.3888 99.9548C67.422 99.9413 67.4506 99.9183 67.4709 99.8888C67.4913 99.8594 67.5025 99.8246 67.5033 99.7889C67.66 95.6569 67.2865 92.0125 67.3869 87.9045C67.5957 79.4167 67.6627 65.1227 67.5877 45.0223C67.5797 43.4078 67.5355 42.2356 67.4551 41.5057C68.0255 40.3948 68.0148 39.2692 67.423 38.129C67.2035 37.7054 66.4939 36.769 65.2944 35.3197C63.6343 33.3163 61.8175 31.6566 59.8442 30.3406C57.1238 28.529 54.8786 27.2009 53.1088 26.3564C51.2157 25.456 48.0375 24.0986 43.574 22.2844C39.9713 20.8218 35.7501 19.7029 32.5371 18.6999C29.2437 17.6649 24.8016 17.0615 21.7492 16.5979C21.7024 16.5905 21.6546 16.5931 21.609 16.6057C21.5634 16.6183 21.521 16.6405 21.4848 16.6708C21.4486 16.7012 21.4194 16.7389 21.3991 16.7815C21.3789 16.8241 21.3682 16.8705 21.3676 16.9176C21.231 24.5262 21.3997 32.6103 21.227 41.0301C21.1949 42.578 21.2672 44.9623 21.4439 48.1832C21.9219 56.8228 21.9259 65.3784 21.3475 74.05C21.1708 76.6608 21.2618 79.3968 21.6206 82.258C21.6288 82.3206 21.6537 82.3799 21.6929 82.4297C21.732 82.4794 21.7839 82.5178 21.8431 82.5406C21.9022 82.5635 21.9665 82.5702 22.0291 82.5598C22.0918 82.5494 22.1504 82.5225 22.199 82.4818L23.4762 81.3948ZM60.1012 102.231C60.7492 102.337 61.527 102.301 62.4347 102.123C62.4705 102.115 62.5038 102.099 62.531 102.075C62.5582 102.05 62.5784 102.019 62.5894 101.985C62.6005 101.95 62.602 101.913 62.5939 101.877C62.5858 101.842 62.5683 101.809 62.5432 101.783C57.1091 96.0405 50.0483 92.524 42.4414 89.5189C38.911 88.1243 35.2762 87.4289 31.7217 86.8935C27.0106 86.1782 23.2553 85.5388 18.7489 85.5308C18.6376 85.5309 18.5306 85.5706 18.4477 85.6427L17.6485 86.338C17.4664 85.4509 17.3767 84.5997 17.3794 83.7845C17.3821 82.0422 17.4142 65.5409 17.4758 34.2807C17.4755 34.2214 17.4552 34.1638 17.418 34.1174C17.3808 34.071 17.329 34.0385 17.2709 34.025L9.53947 32.2667C9.51161 32.26 9.4826 32.2597 9.45462 32.2659C9.42664 32.272 9.40044 32.2844 9.37799 32.3021C9.35554 32.3198 9.33744 32.3424 9.32506 32.3681C9.31268 32.3938 9.30634 32.422 9.30652 32.4505V95.8008C9.30652 95.8562 9.31756 95.9111 9.33901 95.9623C9.36045 96.0135 9.39187 96.0599 9.43146 96.0989C9.47104 96.1379 9.51801 96.1687 9.56964 96.1896C9.62127 96.2104 9.67654 96.2209 9.73226 96.2204C19.0984 96.1045 28.8942 96.0246 37.7623 97.4671C41.4815 98.0719 47.4953 99.3054 55.8037 101.168C57.0247 101.443 58.6152 101.923 60.1012 102.231Z" fill="#D25508"/>
<path d="M67.4551 41.5057C66.435 39.3131 64.9288 37.3244 62.9367 35.5395C59.6433 32.5904 56.4088 30.3592 53.2333 28.846C44.724 24.794 36.1223 21.7609 27.4282 19.7469C26.5206 19.5391 25.6744 19.3806 24.8899 19.2713C23.9474 19.1435 23.4762 19.5684 23.4762 20.5461C23.4708 40.8223 23.4708 61.1052 23.4762 81.3948L22.199 82.4818C22.1504 82.5225 22.0918 82.5494 22.0291 82.5598C21.9665 82.5702 21.9022 82.5635 21.8431 82.5406C21.7839 82.5178 21.732 82.4794 21.6929 82.4297C21.6537 82.3799 21.6288 82.3206 21.6206 82.258C21.2618 79.3968 21.1708 76.6608 21.3475 74.05C21.9259 65.3784 21.9219 56.8228 21.4439 48.1832C21.2672 44.9623 21.1949 42.578 21.227 41.0301C21.3997 32.6103 21.231 24.5262 21.3676 16.9176C21.3682 16.8705 21.3789 16.8241 21.3991 16.7815C21.4194 16.7389 21.4486 16.7012 21.4848 16.6708C21.521 16.6405 21.5634 16.6183 21.609 16.6057C21.6546 16.5931 21.7024 16.5905 21.7492 16.5979C24.8016 17.0615 29.2437 17.6649 32.5371 18.6999C35.7501 19.7029 39.9713 20.8218 43.574 22.2844C48.0375 24.0986 51.2157 25.456 53.1088 26.3564C54.8786 27.2009 57.1238 28.529 59.8442 30.3406C61.8175 31.6566 63.6343 33.3163 65.2944 35.3197C66.4939 36.769 67.2035 37.7054 67.423 38.129C68.0148 39.2692 68.0255 40.3948 67.4551 41.5057Z" fill="#D25508"/>
<path d="M73.3753 101.875C72.0258 101.267 71.3229 100.456 71.2667 99.4412C70.8209 91.1733 71.5036 82.8933 71.4715 74.6374C71.4434 67.5763 71.588 59.9837 71.4273 52.1073C71.3256 46.955 71.3175 43.5024 71.4032 41.7494C71.4795 40.123 72.4153 38.9682 73.6524 37.3058C75.6365 34.6404 78.3194 31.7871 81.2633 30.0968C82.5405 29.3615 83.7173 28.5103 85.2516 27.823C87.0536 27.0131 88.9399 26.1846 90.9106 25.3374C91.0397 25.2819 91.1534 25.1963 91.2422 25.0878C91.331 24.9793 91.3922 24.8511 91.4207 24.714L92.1958 20.8818C93.2133 21.1642 93.7943 21.7263 93.9389 22.5681C94.1236 23.6444 94.0888 24.6301 93.8345 25.5252C93.6973 26.0013 93.3883 26.4098 92.9669 26.6721C92.3538 27.0504 91.6161 27.4327 90.7539 27.819C84.7254 30.5204 79.6889 33.8251 75.6766 38.5086C74.2842 40.1363 73.5586 42.0371 73.4997 44.211C73.3899 48.2577 73.3324 61.5155 73.327 83.9843C73.3243 89.7067 73.3404 95.6702 73.3753 101.875Z" fill="#D25508"/>
<path d="M3.24185 100.101C8.56484 99.6797 12.2826 99.4998 14.3952 99.5611C17.6565 99.6544 19.7959 99.697 20.8133 99.689C25.1751 99.661 28.7497 100.025 34.0914 100.424C36.5387 100.608 40.3127 101.277 45.4135 102.43C49.723 103.405 56.7516 105.192 62.3303 107.086C64.625 107.864 66.8058 108.522 68.8729 109.06C70.9253 109.595 72.1543 109.495 74.2508 108.748C81.673 106.107 89.7418 103.465 97.7384 101.699C103.289 100.468 108.506 100.057 113.9 99.6131C116.559 99.3933 119.519 99.725 122.387 99.725C126.157 99.725 130.473 99.7876 135.335 99.9128C135.458 99.916 135.576 99.8709 135.666 99.7871C135.755 99.7034 135.808 99.5878 135.813 99.4652C135.835 99.0096 135.845 98.4049 135.845 97.651C135.837 94.1477 135.868 86.1622 135.938 73.6943C135.97 67.9719 135.961 60.3114 135.91 50.7127C135.898 48.343 136.36 44.9663 135.958 41.8773C138.219 41.5896 138.436 42.9882 138.364 44.8984C138.313 46.2784 138.289 47.1895 138.291 47.6317C138.369 62.0683 138.386 70.3229 138.344 72.3956C138.167 81.0644 138.117 90.386 138.195 100.36C138.198 100.445 138.184 100.529 138.155 100.608C137.85 101.461 137.247 101.888 136.347 101.891C130.419 101.912 125.222 101.909 120.756 101.883C117.145 101.863 113.748 102.135 109.265 102.414C106.839 102.569 103.64 103.05 99.6662 103.857C90.3724 105.746 81.2433 108.414 72.2788 111.861C70.5236 112.532 68.3347 111.561 66.0936 110.814C56.3259 107.551 48.087 105.27 41.377 103.973C35.2267 102.785 29.2316 102.135 23.3918 102.023C20.7759 101.972 16.1785 101.947 9.59972 101.947C8.33055 101.947 5.85648 102.322 4.22986 101.767C3.65686 101.572 3.32753 101.017 3.24185 100.101Z" fill="#D25508"/>
<path d="M82.5446 102.007L79.0062 102.51C78.9446 102.519 78.8817 102.509 78.8263 102.481C78.7708 102.453 78.7254 102.408 78.6964 102.354C78.6673 102.299 78.656 102.236 78.664 102.175C78.672 102.114 78.6989 102.056 78.7411 102.011C84.8781 95.3053 93.0955 90.9215 101.984 88.4719C108.386 86.7083 114.679 85.676 120.864 85.3749C120.975 85.3698 121.079 85.3221 121.156 85.2417C121.232 85.1613 121.274 85.0544 121.274 84.9434L121.371 48.0553C122.388 47.9274 123.098 48.2005 123.499 48.8745C123.748 49.2954 123.859 50.08 123.833 51.2282C123.565 62.3613 123.582 73.5118 123.885 84.6796C123.949 87.1332 121.443 87.8285 119.507 88.0043C115.445 88.3773 113.128 88.5984 112.555 88.6677C103.409 89.7506 95.1719 92.6398 87.6694 97.7628C85.9624 98.9297 84.2234 100.56 82.5446 102.007Z" fill="#D25508"/>
<path d="M60.1012 102.231C58.5161 100.664 56.9443 99.3879 55.386 98.4022C47.4899 93.4071 38.7423 89.9065 29.3922 88.5998C26.878 88.2521 22.8777 88.2361 19.8654 87.7086C18.9069 87.5408 18.1679 87.0839 17.6485 86.338L18.4477 85.6427C18.5306 85.5706 18.6376 85.5309 18.7489 85.5308C23.2553 85.5388 27.0106 86.1782 31.7217 86.8935C35.2762 87.4289 38.911 88.1243 42.4414 89.5189C50.0483 92.524 57.1091 96.0405 62.5432 101.783C62.5683 101.809 62.5858 101.842 62.5939 101.877C62.602 101.913 62.6005 101.95 62.5894 101.985C62.5784 102.019 62.5582 102.05 62.531 102.075C62.5038 102.099 62.4705 102.115 62.4347 102.123C61.527 102.301 60.7492 102.337 60.1012 102.231Z" fill="#D25508"/>
<path d="M138.291 118.635L137.36 118.315C137.3 118.294 137.235 118.29 137.172 118.302C137.11 118.313 137.051 118.341 137.002 118.383C135.795 119.424 134.817 120.29 134.07 120.98C132.094 122.81 131.126 125.324 130.375 127.79C128.584 133.664 128.853 140.869 132.114 146.264C133.122 147.93 134.524 149.009 136.472 148.809L138.054 149.916C138.107 149.953 138.15 150.002 138.181 150.058C138.211 150.114 138.229 150.176 138.231 150.24L138.299 152.178C136.214 152.623 134.631 152.845 133.552 152.845C110.056 152.845 79.958 152.925 52.438 152.973C37.2696 153 27.9129 153.061 24.3678 153.157C19.4384 153.287 15.6055 153.109 12.869 152.621C12.0697 152.482 11.138 152.765 10.3789 152.302C9.12041 151.534 8.06545 150.765 7.21398 149.992C7.20863 149.987 6.49907 149.195 5.08532 147.618C4.37577 146.827 3.5725 146.129 2.67551 145.524C0.578982 141.528 0.346035 136.985 0.775784 132.557C1.28586 127.342 3.53501 122.862 7.45095 119.578C11.0255 116.577 15.5278 116.125 20.0783 116.129C57.1063 116.148 95.3286 116.146 134.745 116.125C135.457 116.122 136.278 116.156 137.207 116.225C137.432 116.24 137.648 116.321 137.827 116.457C138.006 116.594 138.141 116.78 138.215 116.992C138.37 117.426 138.396 117.974 138.291 118.635ZM9.04543 144.521C10.7845 146.799 13.11 148.501 15.9455 149.037C16.6229 149.165 18.2455 149.229 20.8133 149.229C58.7945 149.239 94.5936 149.235 128.21 149.217C128.255 149.216 128.299 149.205 128.338 149.184C128.377 149.163 128.41 149.132 128.435 149.095C128.459 149.057 128.474 149.015 128.477 148.97C128.481 148.926 128.473 148.882 128.455 148.841C126.951 145.404 126.008 141.871 125.628 138.239C125.194 134.134 125.675 129.986 127.07 125.796C127.461 124.615 127.873 123.381 128.307 122.091L130.094 120.001C130.124 119.966 130.143 119.923 130.15 119.878C130.156 119.832 130.149 119.786 130.129 119.744C130.11 119.703 130.079 119.667 130.04 119.643C130.001 119.618 129.955 119.605 129.909 119.606C89.2425 119.693 64.815 119.725 56.6271 119.701C45.9878 119.67 34.3524 119.801 24.0826 119.693C21.3957 119.666 18.6043 119.37 16.5078 119.646C11.1098 120.354 7.45363 123.258 5.53917 128.357C3.95673 132.58 3.89247 136.818 5.34639 141.073C5.8404 142.523 7.22201 144.517 9.04543 144.521Z" fill="#D25508"/>
<path d="M138.291 118.635C138.444 119.626 138.311 120.513 137.894 121.296C137.83 121.417 137.738 121.52 137.625 121.596C134.829 123.452 133.002 126.135 132.142 129.644C130.945 134.527 131.224 139.206 132.978 143.682C133.722 145.576 134.887 147.285 136.472 148.809C134.524 149.009 133.122 147.93 132.114 146.264C128.853 140.869 128.584 133.664 130.375 127.79C131.126 125.324 132.094 122.81 134.07 120.98C134.817 120.29 135.795 119.424 137.002 118.383C137.051 118.341 137.11 118.313 137.172 118.302C137.235 118.29 137.3 118.294 137.36 118.315L138.291 118.635Z" fill="#D25508"/>
<path d="M128.307 122.091C92.58 122.083 56.864 122.083 21.1587 122.091C17.8573 122.091 15.7541 122.236 14.8491 122.527C9.59971 124.217 6.73204 129.104 6.46696 134.543C6.28756 138.262 7.14704 141.588 9.04543 144.521C7.22201 144.517 5.8404 142.523 5.34639 141.073C3.89247 136.818 3.95673 132.58 5.53917 128.357C7.45363 123.258 11.1098 120.354 16.5078 119.646C18.6043 119.37 21.3957 119.666 24.0826 119.693C34.3524 119.801 45.9878 119.67 56.6271 119.701C64.815 119.725 89.2425 119.693 129.909 119.606C129.955 119.605 130.001 119.618 130.04 119.643C130.079 119.667 130.11 119.703 130.129 119.744C130.149 119.786 130.156 119.832 130.15 119.878C130.143 119.923 130.124 119.966 130.094 120.001L128.307 122.091Z" fill="#D25508"/>
<path d="M138.299 152.178C138.382 152.969 138.321 153.654 138.115 154.232C138.037 154.449 137.894 154.637 137.705 154.77C137.516 154.904 137.29 154.975 137.058 154.975C97.1279 154.999 57.2308 155.006 17.3673 154.995C11.0054 154.991 5.41466 151.151 2.67551 145.524C3.5725 146.129 4.37577 146.827 5.08532 147.618C6.49907 149.195 7.20863 149.987 7.21398 149.992C8.06545 150.765 9.12041 151.534 10.3789 152.302C11.138 152.765 12.0697 152.482 12.869 152.621C15.6055 153.109 19.4384 153.287 24.3678 153.157C27.9129 153.061 37.2696 153 52.438 152.973C79.958 152.925 110.056 152.845 133.552 152.845C134.631 152.845 136.214 152.623 138.299 152.178Z" fill="#D25508"/>
<path d="M387.658 71.7654C384.932 68.3679 382.81 64.5332 381.292 60.2613C380.883 59.0954 379.42 57.5105 376.903 55.5067C376.86 55.4732 376.807 55.4541 376.753 55.4521C376.699 55.4501 376.645 55.4653 376.6 55.4955C376.555 55.5257 376.52 55.5695 376.501 55.6206C376.482 55.6716 376.479 55.7274 376.494 55.7799C379.611 67.3751 380.142 79.1205 378.089 91.0163C376.798 98.5399 373.336 105.417 367.701 111.647C353.415 127.469 333.825 130.939 314.14 123.37C311.469 122.341 308.242 120.355 304.462 117.413C300.009 113.952 295.305 110.659 290.352 107.535C283.418 93.7808 281.51 78.9976 284.627 63.1852C289.194 39.9447 306.179 24.0822 329.667 21.3633C339.655 20.2157 349.084 21.7869 357.954 26.077C375.907 34.7529 386.431 51.8314 387.658 71.7654ZM305.061 69.7023C304.407 82.4087 304.639 95.1288 313.472 105.116C329.94 123.698 360.503 114.721 365.097 90.4288C367.087 79.9084 366.524 69.5247 363.407 59.2776C364.725 59.2047 365.206 57.9705 364.852 55.575C364.798 55.186 364.678 54.803 364.497 54.441C360.721 46.7625 356.986 40.6689 348.902 37.1575C339.433 33.0587 330.217 32.5941 321.256 35.7639C306.425 41.0241 297.209 56.6133 296.773 71.984C296.573 79.3437 296.969 86.2981 297.959 92.8471C297.968 92.903 297.993 92.9541 298.033 92.9936C298.073 93.0331 298.124 93.059 298.181 93.0679C298.237 93.0769 298.296 93.0684 298.349 93.0436C298.402 93.0188 298.447 92.9788 298.477 92.9291C300.14 89.9415 301.004 88.0606 301.067 87.2864C301.631 81.1927 302.962 75.3314 305.061 69.7023Z" fill="#D25508"/>
<path d="M506.38 70.0438C504.785 66.9424 502.454 60.3979 498.378 60.3159C498.279 60.3142 498.181 60.3346 498.091 60.3757C498.001 60.4167 497.921 60.4774 497.857 60.5532C497.793 60.6291 497.746 60.7182 497.721 60.8142C497.696 60.9103 497.692 61.0108 497.71 61.1084C498.419 64.688 498.578 71.861 498.187 82.6273C497.86 91.4125 496.306 98.8177 491.099 105.745C488.009 109.853 485.859 112.499 484.651 113.683C472.773 125.342 458.723 129.263 442.5 125.446C433.571 123.342 428.037 119.858 419.789 114.202C418.026 113 416.163 112.936 414.2 114.011C406.812 103.244 403.744 93.9264 403.376 80.8647C402.763 59.5098 409.061 39.5485 428.391 28.3176C438.738 22.306 452.943 19.5324 465.034 21.8688C488.468 26.3911 505.631 45.8333 506.38 70.0438ZM426.414 92.8197C429.414 102.475 434.935 108.983 442.977 112.344C463.807 121.074 483.928 106.906 485.046 84.2668C485.382 77.3625 485.191 70.6541 484.474 64.1415C485.428 57.4194 483.469 50.8749 478.598 44.508C475.29 40.1906 471.114 37.1984 466.07 35.5316C451.538 30.7223 435.234 33.6734 425.474 46.1476C415.563 58.813 415.754 73.2272 418.399 88.4476C418.469 88.8784 418.703 89.269 419.053 89.5407C422.07 91.918 424.524 93.011 426.414 92.8197Z" fill="#D25508"/>
<path d="M561.536 87.9012C562.508 85.0502 561.109 81.8896 557.337 78.4192C557.079 78.1836 556.738 78.0588 556.389 78.0716C556.04 78.0843 555.71 78.2337 555.469 78.4875C551.389 82.7958 546.481 86.3117 540.747 89.0352C540.463 89.1711 540.214 89.3701 540.02 89.6166C539.826 89.8631 539.692 90.1504 539.629 90.4561C539.156 92.7788 538.865 95.3975 538.756 98.3123C538.502 105.125 538.388 113.35 538.416 122.987C538.415 123.374 538.291 123.749 538.062 124.057C537.833 124.365 537.513 124.589 537.148 124.695L527.074 127.66C526.765 125.073 526.615 122.459 526.624 119.817C526.742 84.194 526.783 54.5913 526.747 31.0093C526.747 28.304 527.287 25.9039 528.369 23.8089C528.657 23.2494 529.092 22.7801 529.629 22.4523C530.165 22.1246 530.781 21.9511 531.409 21.9508H546.309C546.507 21.9508 546.698 22.03 546.839 22.1709C546.979 22.3118 547.058 22.503 547.058 22.7023V66.6009C547.057 66.799 547.107 66.9943 547.203 67.1674C547.299 67.3406 547.438 67.4859 547.607 67.589C547.776 67.6922 547.969 67.7497 548.166 67.7562C548.364 67.7626 548.56 67.7176 548.735 67.6256C551.243 66.3048 553.806 63.9868 556.424 60.6712C567.502 46.6259 576.358 35.2402 582.993 26.5142C584.674 24.31 586.173 22.7934 587.491 21.9645C587.723 21.8214 587.992 21.7457 588.268 21.7459H610.407C610.483 21.7459 610.557 21.7671 610.622 21.8071C610.686 21.8472 610.739 21.9044 610.772 21.9725C610.806 22.0406 610.821 22.1168 610.814 22.1926C610.807 22.2684 610.779 22.3408 610.734 22.4017C602.282 33.9058 591.849 47.514 579.435 63.2262C578.144 64.8657 577.049 66.8286 576.149 69.1148C575.998 69.494 575.941 69.9048 575.984 70.3118C576.026 70.7189 576.167 71.1099 576.395 71.4511L615.887 130.734C615.967 130.852 616.013 130.99 616.02 131.132C616.027 131.274 615.995 131.416 615.928 131.541C615.86 131.666 615.76 131.771 615.637 131.843C615.515 131.915 615.375 131.952 615.232 131.95H593.735C593.125 131.95 592.526 131.794 591.994 131.497C591.462 131.201 591.015 130.774 590.695 130.256C581.598 115.536 571.878 101.418 561.536 87.9012Z" fill="#D25508"/>
<path d="M695.826 83.8433L692.704 78.064C692.595 77.8698 692.44 77.7041 692.253 77.5806C692.066 77.4571 691.851 77.3793 691.627 77.3535C675.496 75.6958 659.687 75.9326 644.201 78.064C643.616 78.1433 643.08 78.4333 642.692 78.8804C642.303 79.3275 642.089 79.9014 642.088 80.4959V123.179C642.089 123.469 641.979 123.749 641.782 123.962C641.585 124.176 641.314 124.305 641.025 124.326L629.137 125.324C629.11 94.2454 629.056 63.1488 628.974 32.034C628.96 28.0172 629.042 22.4427 634.89 22.0328C637.753 21.8324 640.925 21.7915 644.405 21.9099C649.872 22.0875 650.267 27.0608 650.267 31.0093C650.267 40.0176 650.19 49.1262 650.035 58.3349C650.017 59.6648 650.104 61.1814 650.294 62.8847C650.348 63.3179 650.556 63.7167 650.88 64.0061C651.203 64.2955 651.621 64.4554 652.053 64.4558H694.762C695.088 64.4558 695.4 64.3263 695.63 64.0957C695.86 63.8651 695.989 63.5523 695.989 63.2262C695.989 49.2811 695.998 38.2233 696.016 30.0529C696.03 26.2136 697.475 22.1422 701.497 21.9645C705.595 21.7824 709.33 21.8051 712.702 22.0328C713.492 22.0845 714.248 22.3744 714.871 22.8645C715.494 23.3546 715.954 24.022 716.192 24.7791C716.628 26.1454 716.851 28.0035 716.86 30.3535C716.969 57.8886 716.964 90.2285 716.846 127.373C716.837 130.151 715.17 131.622 711.843 131.786C706.245 132.05 702.31 132.064 700.038 131.827C698.293 131.654 697.007 130.511 696.18 128.398C696.072 128.118 696.016 127.817 696.016 127.51L695.826 83.8433Z" fill="#D25508"/>
<path d="M763.809 31.1049C761.191 30.3033 758.66 30.2122 756.216 30.8316C756.019 30.8782 755.842 30.9871 755.712 31.1422C755.582 31.2972 755.505 31.4901 755.493 31.6924C754.471 49.454 755.002 76.3288 755.152 122.919C755.154 123.151 755.11 123.381 755.022 123.596C754.935 123.81 754.805 124.005 754.641 124.169C754.478 124.333 754.283 124.463 754.069 124.551C753.855 124.639 753.625 124.683 753.394 124.681L742.393 124.627C742.438 95.7163 742.406 66.7876 742.297 37.8406C742.279 33.4868 742.652 29.3424 743.415 25.4075C743.742 23.6769 744.851 22.6385 746.741 22.2924C750.04 21.673 754.566 21.6457 760.319 22.2104C761.003 22.2791 761.653 22.5422 762.192 22.9683C762.73 23.3945 763.135 23.9659 763.359 24.6151C763.922 26.2455 764.072 28.4088 763.809 31.1049Z" fill="#D25508"/>
<path d="M795.053 21.9098L795.585 29.8615C795.658 30.9145 795.854 31.96 796.171 32.9767C800.706 47.6414 805.746 62.1696 811.289 76.561C813.975 83.5427 817.751 99.3642 823.422 109.789C823.547 110.016 823.729 110.207 823.951 110.342C824.172 110.477 824.425 110.552 824.684 110.559C824.943 110.566 825.199 110.505 825.427 110.382C825.656 110.259 825.848 110.078 825.985 109.857L829.147 104.829C830.374 105.176 831.128 105.28 831.41 105.144C832.873 104.451 833.878 103.308 834.423 101.714C842.829 77.44 851.272 53.1794 859.751 28.9324C861.278 24.5603 862.055 22.1421 867.399 21.9098C870.58 21.7641 873.72 21.7458 876.819 21.8551C875.265 23.8408 874.288 26.0952 873.888 28.6182C873.817 29.0443 873.607 29.4418 873.288 29.7523C871.779 31.1914 870.489 33.3319 869.417 36.1738C865.163 47.4775 860.192 61.7687 854.503 79.0476C848.423 97.4924 844.661 107.111 839.344 122.837C839.23 123.174 839.025 123.472 838.753 123.698C838.481 123.925 838.153 124.071 837.804 124.121C830.142 125.223 822.368 125.073 814.479 123.67C803.255 92.2277 792.104 60.7805 781.026 29.3287C779.254 24.3281 780.467 22.224 785.852 21.9234C788.933 21.7504 792 21.7459 795.053 21.9098Z" fill="#D25508"/>
<path d="M829.147 104.829L825.985 109.857C825.848 110.078 825.656 110.259 825.427 110.382C825.199 110.505 824.943 110.566 824.684 110.559C824.425 110.552 824.172 110.477 823.951 110.342C823.729 110.207 823.547 110.016 823.422 109.789C817.751 99.3642 813.975 83.5427 811.289 76.561C805.746 62.1696 800.706 47.6414 796.171 32.9767C795.854 31.96 795.658 30.9145 795.585 29.8615L795.053 21.9098C798.707 21.6639 801.056 23.0166 802.101 25.9678C806.818 39.2754 815.833 65.5625 829.147 104.829Z" fill="#D25508"/>
<path d="M814.479 123.67C822.368 125.073 830.142 125.223 837.804 124.121C838.153 124.071 838.481 123.925 838.753 123.698C839.025 123.472 839.23 123.174 839.344 122.837C844.661 107.111 848.423 97.4924 854.503 79.0476C860.192 61.7687 865.163 47.4775 869.417 36.1738C870.489 33.3319 871.779 31.1914 873.288 29.7523C873.607 29.4418 873.817 29.0443 873.888 28.6182C874.288 26.0952 875.265 23.8408 876.819 21.8551L884.248 21.8416C884.309 21.8431 884.368 21.8596 884.421 21.8895C884.474 21.9195 884.518 21.9621 884.551 22.0135C884.583 22.0648 884.602 22.1234 884.606 22.184C884.611 22.2446 884.6 22.3053 884.575 22.3608C881.576 28.7823 878.841 35.4862 876.369 42.4725C865.563 73.0589 855.639 101.446 846.596 127.633C846.306 128.48 845.727 129.2 844.961 129.668C842.848 130.966 840.312 131.95 837.354 131.978C831.192 132.032 825.73 131.991 820.968 131.854C820.015 131.827 819.09 131.521 818.306 130.976C817.522 130.43 816.913 129.667 816.551 128.78L814.479 123.67Z" fill="#D25508"/>
<path d="M965.209 65.5489V83.2285C965.209 83.3074 965.194 83.3856 965.164 83.4586C965.133 83.5315 965.089 83.5978 965.034 83.6536C964.978 83.7094 964.912 83.7537 964.839 83.784C964.766 83.8142 964.688 83.8297 964.609 83.8297C944.234 83.8388 931.902 83.8889 927.612 83.98C925.095 84.0256 922.904 84.3671 921.041 85.0047C920.458 85.2007 919.95 85.5732 919.584 86.0717C919.218 86.5702 919.013 87.1707 918.997 87.7919C918.878 92.8016 918.865 99.2641 918.956 107.179C918.974 108.245 919.219 109.684 919.692 111.497C919.773 111.816 919.959 112.1 920.221 112.303C920.483 112.505 920.805 112.616 921.137 112.617C945.475 112.517 960.229 112.512 965.4 112.604C970.485 112.685 971.194 118.315 970.962 122.413C970.648 127.592 971.085 131.909 965.509 131.936C934.964 132.064 914.661 132.018 904.601 131.8C901.111 131.718 899.38 129.887 899.407 126.307C899.498 115.805 899.521 82.8961 899.475 27.5799C899.475 22.593 902.311 21.9645 906.796 21.9372C921.673 21.8643 942.68 21.8507 969.817 21.8962C970.074 21.8962 970.32 21.9984 970.501 22.1803C970.683 22.3623 970.785 22.609 970.785 22.8662V40.3137C970.785 40.4608 970.756 40.6064 970.7 40.7424C970.644 40.8783 970.561 41.0018 970.457 41.1059C970.354 41.2099 970.23 41.2924 970.095 41.3487C969.959 41.405 969.814 41.434 969.667 41.434H921.082C920.765 41.4335 920.459 41.5551 920.228 41.7737C919.997 41.9923 919.859 42.2912 919.842 42.609C919.387 49.7319 919.587 56.3766 920.442 62.5431C920.514 63.065 920.773 63.5431 921.171 63.8895C921.569 64.2359 922.08 64.4274 922.609 64.4285H964.091C964.238 64.4285 964.384 64.4575 964.519 64.5138C964.655 64.5701 964.778 64.6526 964.882 64.7567C964.986 64.8607 965.068 64.9842 965.124 65.1201C965.18 65.256 965.209 65.4018 965.209 65.5489Z" fill="#D25508"/>
<path d="M257.295 74.5662C265.329 82.4997 268.691 91.8769 267.383 102.698C265.901 114.903 259.78 123.593 249.02 128.767C244.004 131.185 236.451 131.704 231.121 131.964C230.758 131.982 216.099 131.959 187.144 131.895C184.427 131.895 183.064 130.338 183.055 127.223C183 85.6877 182.986 53.3888 183.014 30.326C183.014 27.2018 183.136 25.2799 183.382 24.5604C183.549 24.0572 183.886 23.6272 184.336 23.3444C185.381 22.6794 186.967 22.3424 189.094 22.3333C205.079 22.2422 218.934 22.2194 230.658 22.2649C246.294 22.3333 259.926 27.2109 263.388 44.4124C263.57 45.3232 263.684 47.9784 263.729 52.3778C263.784 57.8976 263.634 62.7752 260.935 67.1063C260.008 68.6001 258.74 70.5721 257.131 73.0223C256.978 73.2632 256.91 73.5483 256.94 73.8295C256.97 74.1107 257.095 74.3709 257.295 74.5662ZM204.525 41.6661C203.88 46.0747 203.716 51.6218 204.034 58.3074C204.171 61.2039 204.534 63.012 205.125 63.7316C205.276 63.9214 205.463 64.0776 205.674 64.1905C205.885 64.3034 206.116 64.3704 206.352 64.3874C212.091 64.8793 221.961 65.9313 229.99 65.2208C241.018 64.2234 246.144 57.2828 241.304 46.0519C242.904 43.2556 242.436 40.7097 239.9 38.4144C236.315 35.1763 230.93 34.179 226.282 34.097C222.029 34.0241 211.959 34.0651 196.073 34.2199C195.831 34.2217 195.592 34.2717 195.369 34.3671C195.146 34.4625 194.944 34.6013 194.776 34.7755C194.607 34.9496 194.474 35.1557 194.386 35.3817C194.297 35.6077 194.255 35.849 194.26 36.0917L195.242 72.8583C195.246 72.9546 195.281 73.047 195.341 73.122C195.401 73.197 195.484 73.2507 195.577 73.2751C195.67 73.2996 195.768 73.2935 195.858 73.2579C195.947 73.2222 196.022 73.1588 196.073 73.0769C201.035 64.3737 200.326 58.895 200.913 49.1124C201.04 46.9901 202.244 44.508 204.525 41.6661ZM204.825 85.9883C204.134 87.473 203.789 89.0715 203.789 90.7839C203.798 96.4494 203.825 102.156 203.871 107.903C203.889 110.581 205.102 112.039 207.51 112.276C213.699 112.877 221.306 113.004 230.331 112.658C244.144 112.121 249.111 105.052 245.23 91.4534C245.108 81.2473 236.22 78.4328 228.231 78.1869C217.626 77.859 206.729 78.3462 195.542 79.6487C195.328 79.6742 195.13 79.7745 194.983 79.932C194.835 80.0895 194.749 80.294 194.737 80.5095C194.028 92.8971 194.128 105.075 195.037 117.044C195.051 117.245 195.13 117.437 195.263 117.59C195.395 117.742 195.573 117.847 195.771 117.889C195.968 117.931 196.173 117.907 196.356 117.821C196.538 117.735 196.688 117.592 196.782 117.413C201.376 108.682 200.64 97.3011 200.476 87.9831C200.472 87.6683 200.587 87.3639 200.797 87.1326C201.008 86.9013 201.298 86.7606 201.608 86.7397C201.971 86.7215 202.194 86.4938 202.276 86.0566C202.304 85.9148 202.364 85.7813 202.451 85.6661C202.538 85.551 202.649 85.4574 202.777 85.3927C202.905 85.328 203.045 85.2939 203.188 85.2929C203.33 85.2919 203.471 85.3241 203.598 85.3871L204.825 85.9883Z" fill="#D25508"/>
<path d="M763.809 31.1049C763.809 63.2671 763.8 95.4567 763.781 127.674C763.781 130.215 762.441 131.586 759.76 131.786C755.298 132.123 750.617 132.123 745.719 131.786C745.443 131.768 745.178 131.668 744.956 131.499C743.083 130.115 742.229 127.824 742.393 124.627L753.394 124.681C753.625 124.683 753.855 124.639 754.069 124.551C754.283 124.463 754.478 124.333 754.641 124.169C754.805 124.005 754.935 123.81 755.022 123.596C755.11 123.381 755.154 123.151 755.152 122.919C755.002 76.3288 754.471 49.454 755.493 31.6924C755.505 31.4901 755.582 31.2972 755.712 31.1422C755.842 30.9871 756.019 30.8782 756.216 30.8316C758.66 30.2122 761.191 30.3033 763.809 31.1049Z" fill="#D25508"/>
<path d="M484.474 64.1415C482.156 56.7818 479.212 51.4398 475.64 48.1152C463.671 36.9936 443.932 37.3352 432.971 49.7957C423.252 60.8625 423.579 79.3755 426.414 92.8197C424.524 93.011 422.07 91.918 419.053 89.5407C418.703 89.269 418.469 88.8784 418.399 88.4476C415.754 73.2272 415.563 58.813 425.474 46.1476C435.234 33.6734 451.538 30.7223 466.07 35.5316C471.114 37.1984 475.29 40.1906 478.598 44.508C483.469 50.8749 485.428 57.4194 484.474 64.1415Z" fill="#D25508"/>
<path d="M363.407 59.2776C349.325 28.7959 308.074 36.5564 305.061 69.7023C302.962 75.3314 301.631 81.1927 301.067 87.2864C301.004 88.0606 300.14 89.9415 298.477 92.9291C298.447 92.9788 298.402 93.0188 298.349 93.0436C298.296 93.0684 298.237 93.0769 298.181 93.0679C298.124 93.059 298.073 93.0331 298.033 92.9936C297.993 92.9541 297.968 92.903 297.959 92.8471C296.969 86.2981 296.573 79.3437 296.773 71.984C297.209 56.6133 306.425 41.0241 321.256 35.7639C330.217 32.5941 339.433 33.0587 348.902 37.1575C356.986 40.6689 360.721 46.7625 364.497 54.441C364.678 54.803 364.798 55.186 364.852 55.575C365.206 57.9705 364.725 59.2047 363.407 59.2776Z" fill="#D25508"/>
<path d="M241.304 46.0519C238.96 43.0188 235.756 41.4886 231.694 41.4613C219.179 41.3793 210.123 41.4475 204.525 41.6661C202.244 44.508 201.04 46.9901 200.913 49.1124C200.326 58.895 201.035 64.3737 196.073 73.0769C196.022 73.1588 195.947 73.2222 195.858 73.2579C195.768 73.2935 195.67 73.2996 195.577 73.2751C195.484 73.2507 195.401 73.197 195.341 73.122C195.281 73.047 195.246 72.9546 195.242 72.8583L194.26 36.0917C194.255 35.849 194.297 35.6077 194.386 35.3817C194.474 35.1557 194.607 34.9496 194.776 34.7755C194.944 34.6013 195.146 34.4625 195.369 34.3671C195.592 34.2717 195.831 34.2217 196.073 34.2199C211.959 34.0651 222.029 34.0241 226.282 34.097C230.93 34.179 236.315 35.1763 239.9 38.4144C242.436 40.7097 242.904 43.2556 241.304 46.0519Z" fill="#D25508"/>
<path d="M387.658 71.7654C388.676 82.3678 387.64 91.713 384.55 99.8014C378.634 115.304 367.429 125.975 350.934 131.813C344.022 134.259 337.329 133.958 331.549 133.89C314.468 133.658 298.791 122.099 290.352 107.535C295.305 110.659 300.009 113.952 304.462 117.413C308.242 120.355 311.469 122.341 314.14 123.37C333.825 130.939 353.415 127.469 367.701 111.647C373.336 105.417 376.798 98.5399 378.089 91.0163C380.142 79.1205 379.611 67.3751 376.494 55.7799C376.479 55.7274 376.482 55.6716 376.501 55.6206C376.52 55.5695 376.555 55.5257 376.6 55.4955C376.645 55.4653 376.699 55.4501 376.753 55.4521C376.807 55.4541 376.86 55.4732 376.903 55.5067C379.42 57.5105 380.883 59.0954 381.292 60.2613C382.81 64.5332 384.932 68.3679 387.658 71.7654Z" fill="#D25508"/>
<path d="M506.38 70.0438C506.635 74.1791 506.726 78.36 506.653 82.5864C506.271 104.665 493.539 122.55 473.336 130.707C467.829 132.929 461.749 134.027 455.096 134C438.72 133.936 425.088 127.273 414.2 114.011C416.163 112.936 418.026 113 419.789 114.202C428.037 119.858 433.571 123.342 442.5 125.446C458.723 129.263 472.773 125.342 484.651 113.683C485.859 112.499 488.009 109.853 491.099 105.745C496.306 98.8177 497.86 91.4125 498.187 82.6273C498.578 71.861 498.419 64.688 497.71 61.1084C497.692 61.0108 497.696 60.9103 497.721 60.8142C497.746 60.7182 497.793 60.6291 497.857 60.5532C497.921 60.4774 498.001 60.4167 498.091 60.3757C498.181 60.3346 498.279 60.3142 498.378 60.3159C502.454 60.3979 504.785 66.9424 506.38 70.0438Z" fill="#D25508"/>
<path d="M695.826 83.8433L651.303 83.9664C651.155 83.9664 651.009 83.9958 650.872 84.0529C650.736 84.1101 650.612 84.1939 650.508 84.2993C650.404 84.4048 650.322 84.5299 650.267 84.6674C650.211 84.8049 650.184 84.9521 650.185 85.1004C650.313 101.077 650.349 114.352 650.294 124.927C650.285 127.441 649.667 129.423 648.44 130.871C648.222 131.133 647.951 131.346 647.646 131.497C647.341 131.647 647.008 131.732 646.668 131.745C640.152 132.064 635.985 132.119 634.168 131.909C631.087 131.554 629.41 129.359 629.137 125.324L641.025 124.326C641.314 124.305 641.585 124.176 641.782 123.962C641.979 123.749 642.089 123.469 642.088 123.179V80.4959C642.089 79.9014 642.303 79.3275 642.692 78.8804C643.08 78.4333 643.616 78.1433 644.201 78.064C659.687 75.9326 675.496 75.6958 691.627 77.3535C691.851 77.3793 692.066 77.4571 692.253 77.5806C692.44 77.7041 692.595 77.8698 692.704 78.064L695.826 83.8433Z" fill="#D25508"/>
<path d="M245.23 91.4534C242.095 86.9082 237.924 84.5584 232.716 84.4036C225.328 84.185 217.939 84.2259 210.551 84.5265C208.224 84.6267 206.315 85.1139 204.825 85.9883L203.598 85.3871C203.471 85.3241 203.33 85.2919 203.188 85.2929C203.045 85.2939 202.905 85.328 202.777 85.3927C202.649 85.4574 202.538 85.551 202.451 85.6661C202.364 85.7813 202.304 85.9148 202.276 86.0566C202.194 86.4938 201.971 86.7215 201.608 86.7397C201.298 86.7606 201.008 86.9013 200.797 87.1326C200.587 87.3639 200.472 87.6683 200.476 87.9831C200.64 97.3011 201.376 108.682 196.782 117.413C196.688 117.592 196.538 117.735 196.356 117.821C196.173 117.907 195.968 117.931 195.771 117.889C195.573 117.847 195.395 117.742 195.263 117.59C195.13 117.437 195.051 117.245 195.037 117.044C194.128 105.075 194.028 92.8971 194.737 80.5095C194.749 80.294 194.835 80.0895 194.983 79.932C195.13 79.7745 195.328 79.6742 195.542 79.6487C206.729 78.3462 217.626 77.859 228.231 78.1869C236.22 78.4328 245.108 81.2473 245.23 91.4534Z" fill="#D25508"/>
<path d="M561.536 87.9012C560.999 87.4822 560.522 87.1769 560.104 86.9856C559.976 86.9278 559.835 86.9037 559.697 86.9157C559.558 86.9276 559.426 86.9753 559.314 87.054L548.817 94.063C548.285 94.42 547.848 94.9033 547.546 95.4704C547.244 96.0376 547.086 96.671 547.086 97.3148C547.086 114.038 547.049 124.03 546.977 127.291C546.949 128.657 546.481 129.932 545.573 131.117C545.435 131.289 545.264 131.431 545.069 131.535C544.874 131.638 544.661 131.701 544.441 131.718C539.07 132.091 534.794 132.137 531.613 131.854C529.178 131.645 527.664 130.247 527.074 127.66L537.148 124.695C537.513 124.589 537.833 124.365 538.062 124.057C538.291 123.749 538.415 123.374 538.416 122.987C538.388 113.35 538.502 105.125 538.756 98.3123C538.865 95.3975 539.156 92.7788 539.629 90.4561C539.692 90.1504 539.826 89.8631 540.02 89.6166C540.214 89.3701 540.463 89.1711 540.747 89.0352C546.481 86.3117 551.389 82.7958 555.469 78.4875C555.71 78.2337 556.04 78.0843 556.389 78.0716C556.738 78.0588 557.079 78.1836 557.337 78.4192C561.109 81.8896 562.508 85.0502 561.536 87.9012Z" fill="#D25508"/>
</svg>
